<?xml version="1.0" standalone="no"?>
<!DOCTYPE svg PUBLIC "-//W3C//DTD SVG 20010904//EN"
 "http://www.w3.org/TR/2001/REC-SVG-20010904/DTD/svg10.dtd">
<svg version="1.0" xmlns="http://www.w3.org/2000/svg"
 width="200.000000pt" height="200.000000pt" viewBox="0 0 200.000000 200.000000"
 preserveAspectRatio="xMidYMid meet">
<metadata>
Created by potrace 1.11, written by Peter Selinger 2001-2013
</metadata>
<g transform="translate(0.000000,200.000000) scale(0.100000,-0.100000)"
fill="#000000" stroke="none">
<path d="M298 1124 c-54 -55 -95 -104 -91 -107 3 -4 15 0 25 10 17 16 18 11
18 -115 l0 -132 -30 0 c-16 0 -30 -4 -30 -10 0 -7 257 -10 750 -10 493 0 750
3 750 10 0 7 -245 10 -715 10 l-715 0 0 137 0 136 70 73 70 72 84 -90 c45 -50
86 -87 89 -82 3 5 -36 52 -86 104 l-92 95 -97 -101z"/>
<path d="M457 1204 c-7 -12 179 -201 188 -192 4 3 -36 50 -88 104 -51 54 -96
93 -100 88z"/>
<path d="M527 1194 c-6 -11 179 -202 187 -193 3 3 -37 49 -88 104 -51 54 -95
94 -99 89z"/>
<path d="M350 1065 l0 -45 50 0 50 0 0 45 0 45 -50 0 -50 0 0 -45z"/>
<path d="M413 973 c-15 -6 -18 -103 -4 -103 6 0 11 19 13 43 3 40 5 42 36 45
30 3 33 1 30 -20 -2 -18 -9 -23 -30 -21 -18 1 -28 -3 -28 -12 0 -10 9 -13 31
-10 47 6 59 21 47 56 -9 25 -15 29 -46 28 -21 0 -43 -3 -49 -6z"/>
<path d="M530 925 c0 -57 16 -76 22 -27 l4 27 14 -27 c7 -16 18 -28 24 -28 6
0 19 12 28 28 l17 27 1 -27 c0 -16 5 -28 10 -28 11 0 12 3 12 55 0 19 -1 40
-1 45 -2 21 -18 8 -41 -32 l-23 -41 -25 41 c-13 23 -28 42 -33 42 -5 0 -9 -25
-9 -55z"/>
<path d="M706 967 c-12 -9 -20 -29 -22 -55 -2 -41 8 -57 19 -28 7 17 73 14 70
-3 -2 -6 3 -11 11 -11 10 0 13 15 13 55 l-1 55 -36 0 c-20 0 -44 -6 -54 -13z
m68 -16 c13 -21 -6 -38 -40 -37 -38 1 -38 0 -24 27 11 19 54 26 64 10z"/>
<path d="M826 964 c-10 -25 -7 -94 4 -94 6 0 10 20 10 45 0 43 1 45 29 45 38
0 60 -25 34 -38 -10 -5 -26 -8 -35 -7 -24 4 -23 -12 2 -20 26 -8 60 11 60 35
0 40 -11 50 -55 50 -30 0 -45 -5 -49 -16z"/>
<path d="M957 973 c-11 -10 -8 -103 3 -103 6 0 10 20 10 45 0 43 1 45 30 45
19 0 33 -6 37 -16 7 -19 -13 -34 -39 -29 -10 2 -18 -2 -18 -9 0 -14 47 -15 69
-2 15 9 14 49 -1 64 -13 13 -80 17 -91 5z"/>
</g>
</svg>
